# xmcd
#
# Track frame offsets:
# 150
# 16050
# 35303
# 55291
# 72484
# 89412
# 110135
# 126340
# 142782
# 163341
# 178284
# 188854
# 208590
#
# Disc length: 3081 seconds
#
#
# Revision: 2
# Processed by: cddbd v1.5.1PL0 Copyright (c) Steve Scherf et al.
# Submitted via: FreeRIP 2.941 
#
DISCID=c00c070d
DTITLE=Pappa Joe Grappa - Too White to Sing the Blues
DYEAR=2005
DGENRE=
TTITLE0=Manmade Woman
TTITLE1=Too White to Sing the Blues
TTITLE2=Why Didn't My Teacher Do Me?
TTITLE3=Jury Duty
TTITLE4=Medical Marijuana
TTITLE5=Altar Boy Blues
TTITLE6=You Get Old If You're Lucky
TTITLE7=Damn Big SUV
TTITLE8=Married Man Blues
TTITLE9=Bedbug Boogie
TTITLE10=She's Beautiful and She Don't Care
TTITLE11=Start Again
TTITLE12=Them Starbucks Blues
EXTD=As heard on\nBluesfestRadio.com
EXTT0=
EXTT1=
EXTT2=
EXTT3=
EXTT4=
EXTT5=
EXTT6=
EXTT7=
EXTT8=
EXTT9=
EXTT10=
EXTT11=
EXTT12=
PLAYORDER=
